<svg width="18" height="18" viewBox="0 0 18 18" fill="none" xmlns="http://www.w3.org/2000/svg">
<path d="M7.33335 11.5L4.77064 14.0947C4.41317 14.4567 4.23444 14.6376 4.08081 14.6504C3.94753 14.6615 3.81703 14.6079 3.72999 14.5064C3.62965 14.3893 3.62965 14.135 3.62965 13.6263V12.3263C3.62965 11.87 3.25592 11.5397 2.80436 11.4736V11.4736C1.71147 11.3135 0.853167 10.4552 0.693083 9.36233C0.666687 9.18213 0.666687 8.9671 0.666687 8.53704V4.66667C0.666687 3.26654 0.666687 2.56647 0.939171 2.03169C1.17885 1.56129 1.56131 1.17883 2.03171 0.939151C2.56649 0.666667 3.26656 0.666667 4.66669 0.666667H10.8334C12.2335 0.666667 12.9336 0.666667 13.4683 0.939151C13.9387 1.17883 14.3212 1.56129 14.5609 2.03169C14.8334 2.56647 14.8334 3.26654 14.8334 4.66667V8.16667M14.8334 17.3333L13.0197 16.0724C12.7647 15.8952 12.6373 15.8065 12.4985 15.7437C12.3754 15.6879 12.2459 15.6473 12.113 15.6228C11.9632 15.5952 11.808 15.5952 11.4975 15.5952H10C9.0666 15.5952 8.59989 15.5952 8.24337 15.4136C7.92977 15.2538 7.6748 14.9988 7.51501 14.6852C7.33335 14.3287 7.33335 13.862 7.33335 12.9286V10.8333C7.33335 9.89991 7.33335 9.4332 7.51501 9.07668C7.6748 8.76308 7.92977 8.50811 8.24337 8.34832C8.59989 8.16667 9.0666 8.16667 10 8.16667H14.6667C15.6001 8.16667 16.0668 8.16667 16.4233 8.34832C16.7369 8.50811 16.9919 8.76308 17.1517 9.07668C17.3334 9.4332 17.3334 9.89991 17.3334 10.8333V13.0952C17.3334 13.8718 17.3334 14.2601 17.2065 14.5664C17.0373 14.9748 16.7129 15.2992 16.3045 15.4684C15.9982 15.5952 15.6099 15.5952 14.8334 15.5952V17.3333Z" stroke="#737373" stroke-width="1.33" stroke-linecap="round" stroke-linejoin="round"/>
</svg>
