<svg width="20" height="20" viewBox="0 0 20 20" fill="none" xmlns="http://www.w3.org/2000/svg">
<path d="M1.66669 5.83334L5.99489 8.71881C6.24459 8.88528 6.36944 8.96851 6.50452 9.02748C6.62441 9.07982 6.75005 9.11786 6.87883 9.14081C7.02393 9.16668 7.17398 9.16668 7.47409 9.16668H12.526C12.8261 9.16668 12.9761 9.16668 13.1212 9.14081C13.25 9.11786 13.3756 9.07982 13.4955 9.02748C13.6306 8.96851 13.7555 8.88527 14.0052 8.71881L18.3334 5.83334M5.66669 16.6667H14.3334C15.7335 16.6667 16.4336 16.6667 16.9683 16.3942C17.4387 16.1545 17.8212 15.7721 18.0609 15.3017C18.3334 14.7669 18.3334 14.0668 18.3334 12.6667V7.33334C18.3334 5.93321 18.3334 5.23315 18.0609 4.69837C17.8212 4.22796 17.4387 3.84551 16.9683 3.60583C16.4336 3.33334 15.7335 3.33334 14.3334 3.33334H5.66669C4.26656 3.33334 3.56649 3.33334 3.03171 3.60583C2.56131 3.84551 2.17885 4.22796 1.93917 4.69837C1.66669 5.23315 1.66669 5.93321 1.66669 7.33334V12.6667C1.66669 14.0668 1.66669 14.7669 1.93917 15.3017C2.17885 15.7721 2.56131 16.1545 3.03171 16.3942C3.56649 16.6667 4.26656 16.6667 5.66669 16.6667Z" stroke="#737373" stroke-width="1.33" stroke-linecap="round" stroke-linejoin="round"/>
</svg>
