<svg width="113" height="32" viewBox="0 0 113 32" fill="none" xmlns="http://www.w3.org/2000/svg">
<rect width="32" height="32" rx="16" fill="#D4D4D4"/>
<path d="M17.6135 11.2L20.1055 21H17.8515L16.5215 15.358H16.4935L14.6735 19.6H13.1195L11.3135 15.358H11.2855L9.9555 21H7.6875L10.1935 11.2H11.8315L13.8895 16.268H13.9175L15.9755 11.2H17.6135ZM23.4616 11.2V18.522C23.4616 19.39 23.2562 20.0293 22.8456 20.44C22.4349 20.8413 21.8002 21.042 20.9416 21.042H20.2416V19.012H20.7176C21.1002 19.012 21.2916 18.7833 21.2916 18.326V11.2H23.4616Z" fill="#525252"/>
<path d="M49.744 10.2L52.18 20H50.29L48.806 13.63H48.778L46.762 18.544H45.46L43.444 13.63H43.416L41.918 20H40.042L42.478 10.2H43.878L46.09 15.772H46.118L48.344 10.2H49.744ZM55.892 13.322C56.8813 13.322 57.6513 13.6253 58.202 14.232C58.7526 14.8293 59.028 15.6787 59.028 16.78V17.116H54.198C54.2446 17.6107 54.4313 17.998 54.758 18.278C55.094 18.5487 55.514 18.684 56.018 18.684C56.718 18.684 57.362 18.39 57.95 17.802L58.818 19.048C57.978 19.8227 57.0446 20.21 56.018 20.21C54.9633 20.21 54.1186 19.8973 53.484 19.272C52.8493 18.6467 52.532 17.816 52.532 16.78C52.532 15.744 52.84 14.9087 53.456 14.274C54.072 13.6393 54.884 13.322 55.892 13.322ZM55.808 14.708C54.9026 14.708 54.38 15.142 54.24 16.01H57.292C57.264 15.5993 57.1146 15.282 56.844 15.058C56.5826 14.8247 56.2373 14.708 55.808 14.708ZM61.8654 10.2V20H60.1434V10.2H61.8654ZM67.358 13.336V15.184H67.162C66.462 15.184 65.9486 15.352 65.622 15.688C65.2953 16.024 65.132 16.5793 65.132 17.354V20H63.424V13.532H65.118V14.904H65.146C65.4913 13.8587 66.2053 13.336 67.288 13.336H67.358ZM68.538 14.288C69.2193 13.644 70.078 13.322 71.114 13.322C72.15 13.322 73.004 13.644 73.676 14.288C74.3573 14.932 74.698 15.758 74.698 16.766C74.698 17.774 74.3573 18.6 73.676 19.244C73.004 19.888 72.15 20.21 71.114 20.21C70.078 20.21 69.2193 19.888 68.538 19.244C67.866 18.6 67.53 17.774 67.53 16.766C67.53 15.758 67.866 14.932 68.538 14.288ZM72.416 15.45C72.08 15.114 71.646 14.946 71.114 14.946C70.582 14.946 70.1433 15.114 69.798 15.45C69.462 15.7767 69.294 16.2153 69.294 16.766C69.294 17.3167 69.462 17.76 69.798 18.096C70.1433 18.4227 70.582 18.586 71.114 18.586C71.646 18.586 72.08 18.4227 72.416 18.096C72.752 17.76 72.92 17.3167 72.92 16.766C72.92 16.2153 72.752 15.7767 72.416 15.45ZM77.954 20.21C76.9273 20.21 76.0033 19.9813 75.182 19.524L75.882 18.068C76.6473 18.516 77.3707 18.74 78.052 18.74C78.584 18.74 78.85 18.586 78.85 18.278C78.85 18.1567 78.808 18.0587 78.724 17.984C78.64 17.9093 78.4953 17.8207 78.29 17.718L77.128 17.214C76.1573 16.7847 75.672 16.1407 75.672 15.282C75.672 14.6473 75.8867 14.162 76.316 13.826C76.7453 13.49 77.366 13.322 78.178 13.322C78.906 13.322 79.6713 13.4713 80.474 13.77L79.9 15.212C79.2 14.9133 78.5933 14.764 78.08 14.764C77.6413 14.764 77.422 14.8947 77.422 15.156C77.422 15.2773 77.464 15.38 77.548 15.464C77.6413 15.548 77.8047 15.6413 78.038 15.744L79.2 16.248C80.152 16.64 80.628 17.27 80.628 18.138C80.628 18.8287 80.39 19.3467 79.914 19.692C79.438 20.0373 78.7847 20.21 77.954 20.21ZM84.5756 13.322C85.5649 13.322 86.3349 13.6253 86.8856 14.232C87.4362 14.8293 87.7116 15.6787 87.7116 16.78V17.116H82.8816C82.9282 17.6107 83.1149 17.998 83.4416 18.278C83.7776 18.5487 84.1976 18.684 84.7016 18.684C85.4016 18.684 86.0456 18.39 86.6336 17.802L87.5016 19.048C86.6616 19.8227 85.7282 20.21 84.7016 20.21C83.6469 20.21 82.8022 19.8973 82.1676 19.272C81.5329 18.6467 81.2156 17.816 81.2156 16.78C81.2156 15.744 81.5236 14.9087 82.1396 14.274C82.7556 13.6393 83.5676 13.322 84.5756 13.322ZM84.4916 14.708C83.5862 14.708 83.0636 15.142 82.9236 16.01H85.9756C85.9476 15.5993 85.7982 15.282 85.5276 15.058C85.2662 14.8247 84.9209 14.708 84.4916 14.708Z" fill="#262626"/>
<path d="M101 14L105 18L109 14" stroke="#737373" stroke-width="1.33" stroke-linecap="round" stroke-linejoin="round"/>
</svg>
